#!OML:ASF F:\VICON\USERDATA\INSTALL\rory3\rory3.ASF
:FULLY-SPECIFIED
:DEGREES
306
root 3.80215 16.6931 -4.37132 385.459 38.5035 5.83979
lowerback -2.15629 3.40635 5.99642
upperback -3.75122 4.78839 6.24517
thorax -2.74288 2.38285 3.10563
lowerneck -0.0973736 -17.2607 -17.7423
upperneck 20.004 -24.9294 12.8609
head 10.3018 -11.9973 4.23871
rclavicle -8.11041e-014 7.31528e-014
rhumerus -4.66482 3.01354 -64.1762
rradius 26.8982
rwrist 12.878
rhand -26.157 -49.611
rfingers 7.12502
rthumb 180.394 100.41
lclavicle -8.11041e-014 7.31528e-014
lhumerus -39.8718 21.6506 -12.665
lradius 31.0024
lwrist 29.9086
lhand -45.0449 -753.513
lfingers 7.12502
lthumb -17.8268 -4.3099
rfemur -57.335 -11.6332 11.6721
rtibia 46.007
rfoot -19.7728 -30.1699
rtoes 7.72443
lfemur -25.2798 -3.43908 -22.9339
ltibia 36.7832
lfoot -27.8442 28.736
ltoes -5.03994
307
root 3.77931 16.6778 -4.30259 385.639 38.2943 5.86525
lowerback -1.79795 3.34331 6.38094
upperback -3.70296 4.74086 6.35128
thorax -2.87514 2.34732 2.98351
lowerneck 0.159394 -17.1273 -17.4337
upperneck 19.365 -24.7301 12.955
head 9.9608 -11.9117 4.30716
rclavicle -1.82882e-014 2.8625e-014
rhumerus -3.83031 2.62219 -63.7351
rradius 26.4321
rwrist 12.8303
rhand -25.8266 -49.8471
rfingers 7.12502
rthumb 180.713 100.174
lclavicle -1.82882e-014 2.8625e-014
lhumerus -38.1342 21.6562 -12.4634
lradius 30.7703
lwrist 29.3816
lhand -45.3139 -754.838
lfingers 7.12502
lthumb -18.0857 -5.65844
rfemur -57.9222 -12.298 12.3695
rtibia 46.3263
rfoot -20.3539 -30.5419
rtoes 8.72224
lfemur -25.2368 -3.44551 -22.802
ltibia 36.7308
lfoot -28.0771 28.9057
ltoes -4.74169
308
root 3.75903 16.6544 -4.23492 385.9 37.9012 5.85309
lowerback -1.64982 3.25894 6.65806
upperback -3.54869 4.63713 6.57896
thorax -2.79713 2.29431 3.06453
lowerneck -0.0923655 -17.015 -17.2275
upperneck 19.129 -24.4621 12.6909
head 9.80905 -11.7904 4.22835
rclavicle -3.33958e-014 -6.04305e-014
rhumerus -2.71006 2.67468 -63.1626
rradius 26.0034
rwrist 12.6247
rhand -25.681 -49.9828
rfingers 7.12502
rthumb 180.854 100.039
lclavicle -3.33958e-014 -6.04305e-014
lhumerus -37.0252 22.3874 -12.5405
lradius 30.7155
lwrist 28.1084
lhand -45.6802 -753.649
lfingers 7.12502
lthumb -18.4381 -4.50266
rfemur -58.7974 -13.132 13.2593
rtibia 46.7642
rfoot -20.9796 -30.4474
rtoes 9.67627
lfemur -25.328 -3.48179 -22.7188
ltibia 36.7247
lfoot -28.1813 29.3973
ltoes -5.05062
309
root 3.73354 16.6297 -4.16272 386.259 37.3308 6.08369
lowerback -1.3784 3.25033 6.6822
upperback -3.4256 4.64622 6.68241
thorax -2.82885 2.29907 3.14568
lowerneck -1.30643 -17.6691 -18.998
upperneck 19.2858 -25.4112 13.8019
head 10.6658 -12.1849 4.47484
rclavicle -1.43125e-013 -3.18055e-014
rhumerus -1.93933 2.31362 -62.7088
rradius 25.748
rwrist 12.7826
rhand -26.1605 -50.0101
rfingers 7.12502
rthumb 180.391 100.01
lclavicle -1.43125e-013 -3.18055e-014
lhumerus -35.3841 22.398 -12.3214
lradius 30.6406
lwrist 27.6738
lhand -45.8621 -753.71
lfingers 7.12502
lthumb -18.613 -4.58002
rfemur -59.6884 -13.7052 13.8136
rtibia 47.2949
rfoot -20.6032 -30.7315
rtoes 9.08237
lfemur -25.3492 -3.29836 -22.8836
ltibia 36.7295
lfoot -28.3627 29.6463
ltoes -5.1523
310
root 3.70413 16.602 -4.08339 386.702 36.7013 6.51005
lowerback -0.9712 3.2655 6.4932
upperback -3.37366 4.70404 6.67372
thorax -3.01744 2.32784 3.21552
lowerneck -1.00638 -17.2743 -17.9904
upperneck 18.9911 -24.7662 13.1795
head 10.151 -11.8998 4.32617
rclavicle 6.36111e-015 2.54444e-014
rhumerus -1.31961 1.71921 -62.3864
rradius 25.3978
rwrist 13.1168
rhand -26.5516 -50.0951
rfingers 7.12502
rthumb 180.013 99.9251
lclavicle 6.36111e-015 2.54444e-014
lhumerus -33.6694 22.1895 -11.9715
lradius 30.64
lwrist 27.4258
lhand -46.148 -757.58
lfingers 7.12502
lthumb -18.8881 -8.47703
rfemur -60.5275 -14.075 14.0755
rtibia 47.9162
rfoot -20.4265 -30.8594
rtoes 9.56728
lfemur -25.3172 -3.07639 -23.2058
ltibia 36.7192
lfoot -28.6674 29.7944
ltoes -5.09069
311
root 3.6778 16.5787 -4.00086 387.012 36.1462 6.65567
lowerback -0.655802 3.1409 6.486
upperback -3.28291 4.56653 6.78539
thorax -3.10932 2.25909 3.32123
lowerneck -1.07761 -16.8762 -17.2239
upperneck 18.8144 -24.105 12.6714
head 9.80913 -11.5905 4.20108
rclavicle 3.10104e-014 -6.67916e-014
rhumerus -0.336541 1.53229 -62.2333
rradius 24.8917
rwrist 13.4129
rhand -26.2924 -50.5686
rfingers 7.12502
rthumb 180.263 99.4518
lclavicle 3.10104e-014 -6.67916e-014
lhumerus -32.3526 22.3835 -12.0673
lradius 30.6255
lwrist 26.8735
lhand -46.2663 -759.811
lfingers 7.12502
lthumb -19.0018 -10.7195
rfemur -61.3418 -14.3623 14.6082
rtibia 48.5693
rfoot -20.0296 -30.8023
rtoes 9.39763
lfemur -25.3169 -2.66418 -23.2915
ltibia 36.6742
lfoot -28.7014 29.9238
ltoes -5.79606
312
root 3.67137 16.5514 -3.95079 387.535 35.57 7.18403
lowerback -0.0830637 2.92995 6.88784
upperback -3.21261 4.33953 6.68028
thorax -3.32016 2.12448 2.96343
lowerneck -1.45529 -16.5463 -16.7261
upperneck 18.8997 -23.5236 12.1632
head 9.67474 -11.3119 4.05376
rclavicle 2.38542e-014 -1.90833e-014
rhumerus 0.702522 1.35094 -62.2166
rradius 24.4535
rwrist 13.7875
rhand -26.2749 -50.5016
rfingers 7.12502
rthumb 180.28 99.5188
lclavicle 2.38542e-014 -1.90833e-014
lhumerus -31.5218 21.7838 -12.2147
lradius 31.083
lwrist 27.0319
lhand -45.8901 -760.501
lfingers 7.12502
lthumb -18.64 -11.3738
rfemur -62.3171 -15.5973 15.232
rtibia 49.2638
rfoot -18.1906 -30.0469
rtoes 6.90168
lfemur -25.2647 -2.4438 -23.8517
ltibia 36.6556
lfoot -28.8303 30.1056
ltoes -6.41139
